<svg width="153" height="28" viewBox="0 0 153 28" fill="none" xmlns="http://www.w3.org/2000/svg">
<path d="M22.71 12.64V22H20.13V20.77C19.37 21.17 18.41 21.54 17.25 21.88C16.09 22.2 14.76 22.36 13.26 22.36C11.26 22.36 9.54 22.05 8.1 21.43C6.66 20.79 5.47 19.95 4.53 18.91C3.61 17.85 2.92 16.66 2.46 15.34C2.02 14 1.8 12.62 1.8 11.2C1.8 9.54 2.09 8.06 2.67 6.76C3.25 5.44 4.06 4.33 5.1 3.43C6.14 2.53 7.37 1.84 8.79 1.36C10.23 0.88 11.8 0.64 13.5 0.64C14.98 0.64 16.26 0.809999 17.34 1.15C18.44 1.47 19.36 1.87 20.1 2.35C20.84 2.83 21.42 3.35 21.84 3.91C22.28 4.45 22.59 4.94 22.77 5.38H20.61C20.49 4.96 20.22 4.55 19.8 4.15C19.4 3.73 18.88 3.36 18.24 3.04C17.6 2.72 16.87 2.46 16.05 2.26C15.23 2.06 14.35 1.96 13.41 1.96C11.99 1.96 10.74 2.19 9.66 2.65C8.6 3.11 7.7 3.76 6.96 4.6C6.22 5.44 5.66 6.44 5.28 7.6C4.92 8.76 4.74 10.03 4.74 11.41C4.74 12.81 4.93 14.1 5.31 15.28C5.71 16.44 6.3 17.45 7.08 18.31C7.86 19.15 8.84 19.81 10.02 20.29C11.2 20.77 12.58 21.01 14.16 21.01C15.36 21.01 16.43 20.87 17.37 20.59C18.31 20.31 19.23 19.88 20.13 19.3V13.87H16.77V12.64H22.71ZM28.1215 22V0.999999H30.8515V20.35H41.6815V22H28.1215ZM57.8384 15.82H47.4884L44.8484 22H43.4684L52.3484 0.999999H53.8484L63.6284 22H60.7184L57.8384 15.82ZM57.2084 14.47L52.4984 4.36H52.3784L48.0584 14.47H57.2084ZM70.181 0.999999L79.811 19.03H79.931L89.651 0.999999H91.721V22H88.991V4.99H88.871L79.391 22.36H78.851L69.581 4.87H69.461V22H68.141V0.999999H70.181ZM100.132 0.999999H102.862V22H100.132V0.999999ZM111.266 0.999999H124.826V2.65H113.996V10.18H123.296V11.56H113.996V22H111.266V0.999999ZM126.613 0.999999H129.703L135.823 12.07H135.943L142.363 0.999999H143.983L136.603 13.78V22H133.873V14.05L126.613 0.999999Z" fill="black"/>
</svg>
